<?xml version="1.0" encoding="utf-8"?>
<!-- Generator: Adobe Illustrator 21.1.0, SVG Export Plug-In . SVG Version: 6.00 Build 0)  -->
<svg version="1.1" id="Layer_1" xmlns="http://www.w3.org/2000/svg" xmlns:xlink="http://www.w3.org/1999/xlink" x="0px" y="0px"
	 viewBox="0 0 215.5 169.8" style="enable-background:new 0 0 215.5 169.8;" xml:space="preserve">
<style type="text/css">
	.st0{fill:#FFFFFF;}
</style>
<path class="st0" d="M201.2,96.5h-187c-6.4,0-11.6-5.2-11.6-11.6v0c0-6.4,5.2-11.6,11.6-11.6h187c6.4,0,11.6,5.2,11.6,11.6v0
	C212.9,91.3,207.6,96.5,201.2,96.5z"/>
<path class="st0" d="M201.2,25.3h-187c-6.4,0-11.6-5.2-11.6-11.6v0c0-6.4,5.2-11.6,11.6-11.6h187c6.4,0,11.6,5.2,11.6,11.6v0
	C212.9,20.1,207.6,25.3,201.2,25.3z"/>
<path class="st0" d="M201.2,167.8h-187c-6.4,0-11.6-5.2-11.6-11.6v0c0-6.4,5.2-11.6,11.6-11.6h187c6.4,0,11.6,5.2,11.6,11.6v0
	C212.9,162.5,207.6,167.8,201.2,167.8z"/>
</svg>
