<?xml version="1.0" encoding="UTF-8" standalone="no"?>
<svg width="275px" height="166px" viewBox="0 0 275 166" version="1.1" xmlns="http://www.w3.org/2000/svg" xmlns:xlink="http://www.w3.org/1999/xlink">
    <!-- Generator: Sketch 46.2 (44496) - http://www.bohemiancoding.com/sketch -->
    <title>flag-uk</title>
    <desc>Created with Sketch.</desc>
    <defs></defs>
    <g id="Page-1" stroke="none" stroke-width="1" fill="none" fill-rule="evenodd">
        <g id="flag-uk" fill-rule="nonzero">
            <rect id="Rectangle-path" fill="#0400BA" x="1" y="1" width="273.7" height="164.5"></rect>
            <polygon id="Shape" fill="#FFFFFF" points="243.9 1 274.7 1 274.7 19.9 31.7 165.5 0.6 165.5 0.6 146.8"></polygon>
            <polygon id="Shape" fill="#FFFFFF" points="274.7 165.4 243.6 165.4 0.6 19.9 0.6 0.9 31.3 0.9 274.7 146.4"></polygon>
            <polygon id="Shape" fill="#AA2B2B" points="109 100.9 130.2 100 20.8 165.4 1 165.4"></polygon>
            <polygon id="Shape" fill="#AA2B2B" points="274.7 1 173.7 61.5 167.8 59.6 159.2 58.4 255 1"></polygon>
            <polygon id="Shape" fill="#AA2B2B" points="96.3 58.7 80.9 61.2 0.9 13.1 0.9 0.9"></polygon>
            <polygon id="Shape" fill="#AA2B2B" points="180 108.4 197.7 107.1 274.7 153.3 274.7 165.4"></polygon>
            <rect id="Rectangle-path" fill="#FFFFFF" x="0.8" y="55.6" width="274.1" height="55.7"></rect>
            <rect id="Rectangle-path" fill="#FFFFFF" x="114.7" y="1" width="46.8" height="164.5"></rect>
            <rect id="Rectangle-path" fill="#AA2B2B" x="0.9" y="67.1" width="274.1" height="32.5"></rect>
            <polygon id="Shape" fill="#AA2B2B" points="124.6 165.4 151.8 165.4 151.8 164 151.8 0.8 124.6 0.8 124.6 164.3"></polygon>
        </g>
    </g>
</svg>
